<?xml version="1.0" encoding="UTF-8"?>
<svg width="131px" height="150px" viewBox="0 0 131 150" version="1.1" xmlns="http://www.w3.org/2000/svg" xmlns:xlink="http://www.w3.org/1999/xlink">
    <!-- Generator: sketchtool 60.1 (101010) - https://sketch.com -->
    <title>11CD64AB-27A5-403E-B6EC-FA604BB1BB3E</title>
    <desc>Created with sketchtool.</desc>
    <defs>
        <polygon id="path-1" points="0 0.0381077977 17.7886401 0.0381077977 17.7886401 17.8437618 0 17.8437618"></polygon>
        <polygon id="path-3" points="0.0634520494 0.00534356697 17.8520715 0.00534356697 17.8520715 17.8109976 0.0634520494 17.8109976"></polygon>
        <polygon id="path-5" points="0 0.00530222409 17.7886401 0.00530222409 17.7886401 17.8109562 0 17.8109562"></polygon>
        <polygon id="path-7" points="0.0634520494 0.0381077977 17.8520715 0.0381077977 17.8520715 17.8437618 0.0634520494 17.8437618"></polygon>
        <polygon id="path-9" points="0.0634520494 0.0423454427 17.8520715 0.0423454427 17.8520715 17.8479995 0.0634520494 17.8479995"></polygon>
        <polygon id="path-11" points="0 0.0423454427 17.7886401 0.0423454427 17.7886401 17.8479995 0 17.8479995"></polygon>
        <polygon id="path-13" points="0.0228613242 0.0739581431 17.8115324 0.0739581431 17.8115324 17.5969726 0.0228613242 17.5969726"></polygon>
    </defs>
    <g id="Pages" stroke="none" stroke-width="1" fill="none" fill-rule="evenodd">
        <g id="Home-V4" transform="translate(-215.000000, -4289.000000)">
            <g id="Global-Footer" transform="translate(0.000000, 4211.000000)">
                <g id="footer">
                    <g transform="translate(215.000000, 73.000000)" id="Group-40">
                        <g transform="translate(0.000000, 5.000000)">
                            <path d="M36.1419866,113.245033 C31.2090954,113.245033 27.2101684,117.247721 27.2101684,122.185482 C27.2101684,127.123037 31.2090954,131.125828 36.1419866,131.125828 C41.0748779,131.125828 45.0738048,127.123037 45.0738048,122.185482 C45.0738048,117.247721 41.0748779,113.245033 36.1419866,113.245033" id="Fill-1" fill="#FFFFFF"></path>
                            <g id="Group-5" transform="translate(0.414714, 66.556291)">
                                <mask id="mask-2" fill="white">
                                    <use xlink:href="#path-1"></use>
                                </mask>
                                <g id="Clip-4"></g>
                                <path d="M8.89430455,0.0381077977 C3.98211432,0.0381077977 -3.09774041e-05,4.02397466 -3.09774041e-05,8.94098649 C-3.09774041e-05,13.8577916 3.98211432,17.8437618 8.89430455,17.8437618 C13.8064948,17.8437618 17.7886401,13.8577916 17.7886401,8.94098649 C17.7886401,4.02397466 13.8064948,0.0381077977 8.89430455,0.0381077977" id="Fill-3" fill="#FFFFFF" mask="url(#mask-2)"></path>
                            </g>
                            <path d="M94.6950169,47.6821192 C89.7621257,47.6821192 85.7631987,51.6848066 85.7631987,56.6225685 C85.7631987,61.5601227 89.7621257,65.5629139 94.6950169,65.5629139 C99.6279082,65.5629139 103.626835,61.5601227 103.626835,56.6225685 C103.626835,51.6848066 99.6279082,47.6821192 94.6950169,47.6821192" id="Fill-6" fill="#FFFFFF"></path>
                            <path d="M103.626835,93.4010414 C103.626835,88.4504014 99.627885,84.4370861 94.6949651,84.4370861 C89.7620452,84.4370861 85.7631987,88.4504014 85.7631987,93.4010414 C85.7631987,95.4482329 86.4484071,97.3340176 87.5993043,98.8430824 L87.4144183,98.8245586 C87.4144183,98.8245586 92.0679872,103.946804 91.8427643,108.541746 C91.7508916,111.863541 90.0259458,114.761161 88.7028133,116.50833 C88.1547918,117.006287 87.6692976,117.571783 87.2579444,118.191289 C87.2136672,118.235518 87.1891954,118.258932 87.1891954,118.258932 L87.2163632,118.256435 C86.2985697,119.664764 85.7631987,121.346891 85.7631987,123.15525 C85.7631987,128.10589 89.7620452,132.119205 94.6949651,132.119205 C99.627885,132.119205 103.626835,128.10589 103.626835,123.15525 C103.626835,120.545476 102.514719,118.197013 100.741141,116.558802 C99.7591613,115.292836 96.9466752,111.428335 96.9466752,108.692433 C96.9466752,103.87146 100.924679,100.180438 100.924679,100.180438 L100.575024,100.145368 C102.444622,98.5023695 103.626835,96.0909461 103.626835,93.4010414" id="Fill-8" fill="#FFFFFF"></path>
                            <path d="M65.9147139,99.3377483 C60.9818226,99.3377483 56.9828957,103.340436 56.9828957,108.278198 C56.9828957,113.215752 60.9818226,117.218543 65.9147139,117.218543 C70.8476051,117.218543 74.8465321,113.215752 74.8465321,108.278198 C74.8465321,103.340436 70.8476051,99.3377483 65.9147139,99.3377483" id="Fill-10" fill="#FFFFFF"></path>
                            <path d="M65.9147139,17.8807947 C70.8476051,17.8807947 74.8465321,13.8781073 74.8465321,8.94034545 C74.8465321,4.0026874 70.8476051,0 65.9147139,0 C60.9818226,0 56.9828957,4.0026874 56.9828957,8.94034545 C56.9828957,13.8781073 60.9818226,17.8807947 65.9147139,17.8807947" id="Fill-12" fill="#FFFFFF"></path>
                            <path d="M34.1971624,36.9380207 C34.2327843,36.9380207 34.2679897,36.9358187 34.3035075,36.9352944 L34.1971624,37.0898521 C34.1971624,37.0898521 43.0181843,35.4959369 47.7679893,38.0765466 C51.7831692,40.3706898 55.1735064,45.0234628 56.7586843,47.4517168 C58.1913752,50.5222135 61.2894455,52.6490066 64.8822654,52.6490066 C69.8372614,52.6490066 73.8541078,48.6053419 73.8541078,43.6171348 C73.8541078,38.6289277 69.8372614,34.5851581 64.8822654,34.5851581 C64.2175302,34.5851581 63.5705018,34.6601301 62.9469089,34.7982254 L62.9974254,34.6610738 C62.9974254,34.6610738 56.2873701,36.6344627 50.859081,34.2056844 C45.5815083,31.7769061 42.7166474,24.7183184 42.7166474,24.7183184 L42.6361334,24.8352328 C41.3876977,21.3588387 38.0809993,18.8741722 34.1971624,18.8741722 C29.2421664,18.8741722 25.2253199,22.9179418 25.2253199,27.906044 C25.2253199,32.894356 29.2421664,36.9380207 34.1971624,36.9380207" id="Fill-14" fill="#FFFFFF"></path>
                            <path d="M36.1419866,47.6821192 C31.2090954,47.6821192 27.2101684,51.741861 27.2101684,56.7500058 C27.2101684,58.2032973 27.5488303,59.5757394 28.147451,60.793325 L28.1108473,60.7885877 C28.1108473,60.7885877 28.1466214,60.8344867 28.2119481,60.9212315 C28.5852435,61.6509828 29.0524849,62.3227288 29.5987405,62.9197311 C31.266334,65.498284 33.7143222,69.9471142 33.515024,73.5901861 C33.2148322,80.0673081 28.5611867,88.1445773 28.5611867,88.1445773 L28.767225,88.1348922 C27.7854581,89.5911314 27.2101684,91.3521355 27.2101684,93.2499942 C27.2101684,98.2580337 31.2090954,102.317881 36.1419866,102.317881 C41.0748779,102.317881 45.0738048,98.2580337 45.0738048,93.2499942 C45.0738048,91.0518973 44.3030535,89.0366593 43.021406,87.466936 L43.1973733,87.4587248 C43.1973733,87.4587248 38.3936837,80.6769432 38.243536,74.6570211 C38.0933883,68.7134218 42.8971816,62.693605 42.8971816,62.693605 L42.8855679,62.6921312 C44.247474,61.1004059 45.0738048,59.0237939 45.0738048,56.7500058 C45.0738048,51.741861 41.0748779,47.6821192 36.1419866,47.6821192" id="Fill-16" fill="#FFFFFF"></path>
                            <path d="M94.6950169,18.8741722 C89.7621257,18.8741722 85.7631987,22.8769634 85.7631987,27.8146214 C85.7631987,32.7522795 89.7621257,36.7549669 94.6950169,36.7549669 C99.6279082,36.7549669 103.626835,32.7522795 103.626835,27.8146214 C103.626835,22.8769634 99.6279082,18.8741722 94.6950169,18.8741722" id="Fill-18" fill="#FFFFFF"></path>
                            <g id="Group-22" transform="translate(112.558653, 32.781457)">
                                <mask id="mask-4" fill="white">
                                    <use xlink:href="#path-3"></use>
                                </mask>
                                <g id="Clip-21"></g>
                                <path d="M8.95778757,17.8109976 C13.8699778,17.8109976 17.8521231,13.8251307 17.8521231,8.9081189 C17.8521231,3.99131378 13.8699778,0.00534356697 8.95778757,0.00534356697 C4.04559735,0.00534356697 0.0634520494,3.99131378 0.0634520494,8.9081189 C0.0634520494,13.8251307 4.04559735,17.8109976 8.95778757,17.8109976" id="Fill-20" fill="#FFFFFF" mask="url(#mask-4)"></path>
                            </g>
                            <g id="Group-25" transform="translate(0.414714, 32.781457)">
                                <mask id="mask-6" fill="white">
                                    <use xlink:href="#path-5"></use>
                                </mask>
                                <g id="Clip-24"></g>
                                <path d="M8.89430455,0.00530222409 C3.98211432,0.00530222409 -3.09774041e-05,3.99127244 -3.09774041e-05,8.90818091 C-3.09774041e-05,13.8250894 3.98211432,17.8109562 8.89430455,17.8109562 C13.8064948,17.8109562 17.7886401,13.8250894 17.7886401,8.90818091 C17.7886401,3.99127244 13.8064948,0.00530222409 8.89430455,0.00530222409" id="Fill-23" fill="#FFFFFF" mask="url(#mask-6)"></path>
                            </g>
                            <g id="Group-28" transform="translate(112.558653, 66.556291)">
                                <mask id="mask-8" fill="white">
                                    <use xlink:href="#path-7"></use>
                                </mask>
                                <g id="Clip-27"></g>
                                <path d="M8.95778757,0.0381077977 C4.04559735,0.0381077977 0.0634520494,4.02397466 0.0634520494,8.94098649 C0.0634520494,13.8577916 4.04559735,17.8437618 8.95778757,17.8437618 C13.8699778,17.8437618 17.8521231,13.8577916 17.8521231,8.94098649 C17.8521231,4.02397466 13.8699778,0.0381077977 8.95778757,0.0381077977" id="Fill-26" fill="#FFFFFF" mask="url(#mask-8)"></path>
                            </g>
                            <g id="Group-31" transform="translate(112.558653, 99.337748)">
                                <mask id="mask-10" fill="white">
                                    <use xlink:href="#path-9"></use>
                                </mask>
                                <g id="Clip-30"></g>
                                <path d="M8.95778757,0.0423454427 C4.04559735,0.0423454427 0.0634520494,4.0282123 0.0634520494,8.94522413 C0.0634520494,13.8620292 4.04559735,17.8479995 8.95778757,17.8479995 C13.8699778,17.8479995 17.8521231,13.8620292 17.8521231,8.94522413 C17.8521231,4.0282123 13.8699778,0.0423454427 8.95778757,0.0423454427" id="Fill-29" fill="#FFFFFF" mask="url(#mask-10)"></path>
                            </g>
                            <g id="Group-34" transform="translate(0.414714, 99.337748)">
                                <mask id="mask-12" fill="white">
                                    <use xlink:href="#path-11"></use>
                                </mask>
                                <g id="Clip-33"></g>
                                <path d="M8.89430455,0.0423454427 C3.98211432,0.0423454427 -3.09774041e-05,4.0282123 -3.09774041e-05,8.94522413 C-3.09774041e-05,13.8620292 3.98211432,17.8479995 8.89430455,17.8479995 C13.8064948,17.8479995 17.7886401,13.8620292 17.7886401,8.94522413 C17.7886401,4.0282123 13.8064948,0.0423454427 8.89430455,0.0423454427" id="Fill-32" fill="#FFFFFF" mask="url(#mask-12)"></path>
                            </g>
                            <g id="Group-37" transform="translate(56.982896, 132.119205)">
                                <mask id="mask-14" fill="white">
                                    <use xlink:href="#path-13"></use>
                                </mask>
                                <g id="Clip-36"></g>
                                <path d="M8.91719685,0.0739581431 C4.00500662,0.0739581431 0.0228613242,3.99655728 0.0228613242,8.8355213 C0.0228613242,13.6742819 4.00500662,17.5969827 8.91719685,17.5969827 C13.8293871,17.5969827 17.8115324,13.6742819 17.8115324,8.8355213 C17.8115324,3.99655728 13.8293871,0.0739581431 8.91719685,0.0739581431" id="Fill-35" fill="#FFFFFF" mask="url(#mask-14)"></path>
                            </g>
                            <path d="M71.6684474,74.6984928 C68.7316903,74.6984928 66.3973688,72.3619292 66.3973688,69.4224554 C66.3973688,66.4828774 68.7316903,64.1463138 71.6684474,64.1463138 C74.6051006,64.1463138 76.939422,66.4828774 76.939422,69.4224554 C76.939422,72.3620333 74.6051006,74.6984928 71.6684474,74.6984928 M65.4184497,55.6291391 C54.7257616,55.6291391 46.066229,64.2969893 46.066229,75.0000521 C46.066229,85.7030107 54.7257616,94.3708609 65.4184497,94.3708609 C76.1111379,94.3708609 84.7707745,85.7030107 84.7707745,75.0000521 C84.7707745,64.2969893 76.1111379,55.6291391 65.4184497,55.6291391" id="Fill-38" fill="#FFFFFF"></path>
                        </g>
                    </g>
                </g>
            </g>
        </g>
    </g>
</svg>